# xmcd CD database file
#
# Track frame offsets:
#	150
#	22472
#	43980
#	59290
#	72665
#	89170
#	109132
#	132177
#	145320
#	160327
#	179825
#	199547
#
# Disc length: 2836 seconds
#
# Revision: 4
# Processed by: cddbd v1.5.2PL0 Copyright (c) Steve Scherf et al.
# Submitted via: CDex 1.70beta2
#
DISCID=c50b120c
DTITLE=The Blind Boys Of Alabama - Spirit Of The Century
DYEAR=2001
DGENRE=Gospel
TTITLE0=Jesus Gonna Be Here
TTITLE1=No More
TTITLE2=Run On For A Long Time
TTITLE3=Good Religion
TTITLE4=Give A Man A Home
TTITLE5=Amazing Grace
TTITLE6=Soldier
TTITLE7=Nobody's Fault
TTITLE8=Way Down In The Hole
TTITLE9=Motherless Child
TTITLE10=Just Wanna See His Face
TTITLE11=The Last Time
EXTD=YEAR: 2001
EXTT0=
EXTT1=
EXTT2=
EXTT3=
EXTT4=
EXTT5=
EXTT6=
EXTT7=
EXTT8=
EXTT9=
EXTT10=
EXTT11=
PLAYORDER=
